<svg xmlns="http://www.w3.org/2000/svg" viewBox="0 0 24 24" width="30px" height="30px" fill="none" stroke="none">
  <path fill-rule="evenodd" clip-rule="evenodd"
    d="M4.222 4.222A10.969 10.969 0 0 1 12 1c3.037 0 5.789 1.232 7.778 3.222A10.969 10.969 0 0 1 23 12c0 3.037-1.232 5.789-3.222 7.778A10.969 10.969 0 0 1 12 23a10.969 10.969 0 0 1-7.778-3.222A10.969 10.969 0 0 1 1 12c0-3.037 1.232-5.789 3.222-7.778ZM12 3a8.969 8.969 0 0 0-6.364 2.636A8.969 8.969 0 0 0 3 12a8.969 8.969 0 0 0 2.636 6.364A8.969 8.969 0 0 0 12 21a8.968 8.968 0 0 0 6.364-2.636A8.968 8.968 0 0 0 21 12a8.969 8.969 0 0 0-2.636-6.364A8.969 8.969 0 0 0 12 3Z"
    fill="currentColor"></path>
  <path fill-rule="evenodd" clip-rule="evenodd"
    d="M17.707 8.293a1 1 0 0 1 0 1.414l-6 6a1 1 0 0 1-1.414 0l-3-3a1 1 0 1 1 1.414-1.414L11 13.586l5.293-5.293a1 1 0 0 1 1.414 0Z"
    fill="currentColor"></path>
</svg>